<?xml version="1.0" encoding="UTF-8"?>
<!DOCTYPE svg PUBLIC "-//W3C//DTD SVG 1.1//EN" "http://www.w3.org/Graphics/SVG/1.1/DTD/svg11.dtd">
<!-- Creator: CorelDRAW 2019 (64-Bit) -->
<svg xmlns="http://www.w3.org/2000/svg" xml:space="preserve" width="89.9779mm" height="39.7082mm" version="1.1" style="shape-rendering:geometricPrecision; text-rendering:geometricPrecision; image-rendering:optimizeQuality; fill-rule:evenodd; clip-rule:evenodd"
viewBox="0 0 2208.25 974.53"
 xmlns:xlink="http://www.w3.org/1999/xlink"
 xmlns:xodm="http://www.corel.com/coreldraw/odm/2003">
 <defs>
  <style type="text/css">
   <![CDATA[
    .fil2 {fill:#E31E24}
    .fil3 {fill:#2B2A29;fill-rule:nonzero}
    .fil0 {fill:#2B2A29;fill-rule:nonzero}
    .fil4 {fill:#E31E24;fill-rule:nonzero}
    .fil1 {fill:#E31E24;fill-rule:nonzero}
   ]]>
  </style>
   <mask id="id0">
  <linearGradient id="id1" gradientUnits="userSpaceOnUse" x1="8.44" y1="4.39" x2="232.8" y2="4.39">
   <stop offset="0" style="stop-opacity:0; stop-color:white"/>
   <stop offset="1" style="stop-opacity:1; stop-color:white"/>
  </linearGradient>
    <rect style="fill:url(#id1)" x="8.44" y="1.93" width="224.36" height="4.91"/>
   </mask>
   <mask id="id2">
  <linearGradient id="id3" gradientUnits="userSpaceOnUse" x1="-0" y1="970.17" x2="232.8" y2="970.17">
   <stop offset="0" style="stop-opacity:0; stop-color:white"/>
   <stop offset="1" style="stop-opacity:1; stop-color:white"/>
  </linearGradient>
    <rect style="fill:url(#id3)" y="967.72" width="232.8" height="4.91"/>
   </mask>
   <mask id="id4">
  <linearGradient id="id5" gradientUnits="userSpaceOnUse" x1="390.05" y1="769.48" x2="477.7" y2="769.48">
   <stop offset="0" style="stop-opacity:0; stop-color:white"/>
   <stop offset="1" style="stop-opacity:1; stop-color:white"/>
  </linearGradient>
    <rect style="fill:url(#id5)" x="390.05" y="767.02" width="87.65" height="4.91"/>
   </mask>
   <mask id="id6">
  <linearGradient id="id7" gradientUnits="userSpaceOnUse" x1="530.9" y1="653.83" x2="618.55" y2="653.83">
   <stop offset="0" style="stop-opacity:0; stop-color:white"/>
   <stop offset="1" style="stop-opacity:1; stop-color:white"/>
  </linearGradient>
    <rect style="fill:url(#id7)" x="530.9" y="651.38" width="87.65" height="4.91"/>
   </mask>
   <mask id="id8">
  <linearGradient id="id9" gradientUnits="userSpaceOnUse" x1="710.37" y1="506.58" x2="798.01" y2="506.58">
   <stop offset="0" style="stop-opacity:0; stop-color:white"/>
   <stop offset="1" style="stop-opacity:1; stop-color:white"/>
  </linearGradient>
    <rect style="fill:url(#id9)" x="710.37" y="504.12" width="87.65" height="4.91"/>
   </mask>
 </defs>
 <g id="Слой_x0020_1">
  <metadata id="CorelCorpID_0Corel-Layer"/>
  <path class="fil0" d="M1059.17 287.21l55.65 0 0 -42.84 -56.14 0c0,-28.07 0,-85.19 59.09,-85.19 16.74,0 28.56,2.95 35.95,6.89l0 349.63 57.12 0 0 -382.63c-21.17,-10.83 -51.71,-17.73 -84.21,-17.73 -104.4,0 -124.59,75.34 -124.59,116.71l0 12.31 -36.44 0 0 42.84 36.44 0 0 228.49 57.12 0 0 -228.49zm415.13 61.56c0,-57.62 -22.16,-110.31 -101.94,-110.31 -36.44,0 -68.45,10.34 -87.65,22.65l11.82 37.92c17.24,-11.33 41.86,-18.71 65.99,-18.71 54.66,0 54.66,40.38 54.66,60.57 -93.07,0 -151.67,33.49 -151.67,100.95 0,41.86 29.06,79.28 79.78,79.28 33.98,0 60.57,-15.76 75.84,-36.93l1.48 0 3.94 31.52 51.71 0c-3.45,-17.73 -3.94,-41.37 -3.94,-64.51l0 -102.43zm-55.64 75.34c0,31.52 -25.61,55.15 -56.63,55.15 -21.18,0 -39.89,-13.3 -39.89,-43.33 0,-48.26 51.71,-56.63 96.52,-56.63l0 44.81zm499.83 -72.39c0,-85.69 -44.32,-113.26 -84.7,-113.26 -38.9,0 -65.5,19.7 -83.72,49.74l-0.98 0c-11.33,-30.53 -37.42,-49.74 -71.9,-49.74 -41.37,0 -65.99,23.15 -79.28,45.8l-1.48 0 -2.95 -39.89 -49.24 0c0.98,23.14 1.97,45.8 1.97,76.33l0 195 56.14 0 0 -164.47c0,-42.84 29.06,-65.99 54.66,-65.99 32.99,0 47.28,29.05 47.28,66.97l0 163.49 56.14 0 0 -167.43c0,-39.4 26.59,-63.03 52.69,-63.03 34.47,0 49.24,30.04 49.24,75.34l0 155.12 56.14 0 0 -163.98z"/>
  <path class="fil1" d="M2174.61 472.79c-7.3,2.7 -15.18,5.06 -24.02,6.86 -11.58,2.37 -24.68,3.78 -40.07,3.78 -24.56,0 -47.72,-7.24 -64.29,-24.2 -14.19,-14.53 -23.34,-36.04 -24.06,-65.99l-0.15 -6.28 173.19 0c0.17,-1.73 0.31,-3.52 0.43,-5.36 0.23,-3.73 0.34,-7.92 0.34,-12.63 0,-34.87 -8.49,-68.64 -27.74,-92.16 -16.09,-19.65 -39.94,-32.2 -72.98,-32.2 -35.29,0 -63.54,14.32 -83.24,37.76 -21.23,25.25 -32.75,61.17 -32.75,101.38 0,40.31 11.54,73.56 33.02,96.43 20.85,22.2 51.29,34.82 89.86,34.82 16.84,0 32.14,-1.55 45.55,-4.08 13.07,-2.46 24.36,-5.85 33.51,-9.61l-6.6 -28.5zm-26.47 -5.12c10.66,-2.18 19.91,-5.27 28.48,-8.84l6.68 -2.78 12.11 52.29 -4.52 2.09c-10.68,4.93 -24.54,9.41 -40.94,12.5 -14.2,2.68 -30.28,4.32 -47.8,4.32 -42.13,0 -75.6,-14.03 -98.77,-38.7 -23.67,-25.2 -36.38,-61.35 -36.38,-104.82 0,-43.03 12.55,-81.73 35.67,-109.24 22,-26.17 53.43,-42.16 92.59,-42.16 37.15,0 64.14,14.31 82.47,36.71 21.18,25.87 30.52,62.44 30.52,99.92 0,4.65 -0.13,9.08 -0.39,13.35 -0.26,4.21 -0.65,8.07 -1.16,11.65l-0.76 5.27 -171.26 0c1.64,23.26 9.16,40.05 20.32,51.47 14,14.34 34.04,20.46 55.51,20.46 14.65,0 26.93,-1.3 37.62,-3.49zm-125.45 -116.01c1.76,-18.84 8.57,-41.06 22.22,-56.96 10.95,-12.76 26.13,-21.5 46.41,-21.5 0.06,0.06 0.98,0.03 1.14,0.03 23.55,0.36 39.08,11.34 48.72,26.7 9.31,14.82 12.92,33.63 12.92,50.56 -0.06,0.06 -0.08,7.3 -0.08,7.86l-131.95 0 0.63 -6.69zm31.52 -49.01c-10.3,11.99 -16.12,28.37 -18.5,43.42l106.03 0c-0.56,-13.74 -3.75,-28.25 -10.91,-39.63 -7.58,-12.07 -19.85,-20.71 -38.51,-20.99l-0.99 -0.01c-16.22,0.02 -28.36,7.01 -37.11,17.21z"/>
  <path class="fil2" d="M489.76 128.26c0.34,-35.17 -13.51,-63.57 -34.4,-67.71 -20.85,-4.13 -35.86,22.08 -36.29,61.04 -0.02,2.21 0,4.39 0.08,6.55 -0.04,1.13 -0.06,2.28 -0.08,3.43 -0.41,37.02 13.4,66.8 34.48,67.14 22.04,0.35 35.9,-27.13 36.21,-60.47 0.02,-2.12 -0.01,-4.22 -0.09,-6.28 0.05,-1.22 0.08,-2.45 0.09,-3.69zm407.92 -10.43l0 311.36 -99.65 81.72c0,-28.38 -0,-56.76 -0.11,-85.25 -0.12,-30.01 -0.23,-60.01 -0.5,-90.13 -0.84,-91.96 -50.33,-120.27 -94.31,-113.81 -42.93,6.3 -73.01,46.56 -86.71,84.73 -0.54,0.11 -1.08,0.23 -1.58,0.46 -0.14,-20.16 1.22,-41.69 1.4,-62.64 -17.53,3.34 -39.31,8.49 -56.96,11.13l0.2 9.94 -0.2 0.03c0.57,28.5 1.13,56.81 1.18,89.9 -0.01,8.19 -0.06,16.68 -0.14,25.55 -0.5,53.46 -1.03,107.03 -1.62,160.48 -0.6,53.45 -1.24,106.91 -1.85,160.37l0.12 -0.1 -0.09 7.12 -79.21 64.97c0.88,-82.45 1.79,-164.89 2.74,-247.22 0.96,-83.57 1.85,-166.92 2.78,-250.49l-0.11 0.01 0.11 -9.99c-20.38,2.3 -40.77,4.71 -61.15,7.01 -1.08,91.28 -2.2,182.55 -3.21,273.95 -1,91.39 -1.74,182.9 -2.12,274.29l0.05 -0.04 -0.01 2.44 -184 150.9 0 -974.53 664.97 117.82zm-160.17 306.5l0 0.91 0 0.61 0 0.91c-0,10.77 -0.02,21.53 -0.05,32.25 -0.1,32.07 -0.31,64.26 -0.5,96.1l0.06 -0.04 -0.04 5.92 -118.37 97.07c0.49,-39.93 0.94,-80.07 1.33,-119.87 0.39,-40.69 0.7,-81.51 1,-122.21 0.48,-64.83 32.31,-109.2 62.04,-117.14 40.81,-10.91 54.43,26.44 54.47,73.35 0.02,17.42 0.04,34.82 0.05,52.15z"/>
  <g id="_1265169326368">
   <path class="fil3" d="M801.85 591.2l0 -41.37 5.49 0 0 36.52 20.34 0 0 4.85 -25.83 0zm51.32 -3.75c-1.89,1.61 -3.71,2.73 -5.45,3.4 -1.74,0.67 -3.61,0.99 -5.62,0.99 -3.29,0 -5.82,-0.8 -7.6,-2.41 -1.77,-1.6 -2.66,-3.65 -2.66,-6.14 0,-1.47 0.34,-2.8 1,-4.02 0.67,-1.21 1.55,-2.17 2.63,-2.91 1.09,-0.73 2.3,-1.29 3.66,-1.66 1,-0.26 2.51,-0.51 4.53,-0.76 4.1,-0.48 7.14,-1.07 9.07,-1.74 0.02,-0.69 0.03,-1.14 0.03,-1.32 0,-2.06 -0.48,-3.51 -1.44,-4.36 -1.3,-1.15 -3.24,-1.71 -5.8,-1.71 -2.4,0 -4.17,0.42 -5.31,1.26 -1.15,0.84 -1.98,2.32 -2.53,4.46l-4.97 -0.69c0.45,-2.13 1.19,-3.85 2.23,-5.16 1.04,-1.31 2.54,-2.31 4.51,-3.02 1.96,-0.7 4.24,-1.06 6.82,-1.06 2.56,0 4.65,0.3 6.26,0.91 1.6,0.61 2.78,1.36 3.53,2.27 0.75,0.92 1.28,2.07 1.59,3.47 0.16,0.87 0.25,2.42 0.25,4.67l0 6.74c0,4.71 0.11,7.69 0.32,8.95 0.2,1.26 0.63,2.46 1.24,3.62l-5.32 0c-0.51,-1.07 -0.84,-2.32 -0.98,-3.75zm-0.4 -11.27c-1.85,0.75 -4.62,1.39 -8.32,1.91 -2.1,0.3 -3.58,0.64 -4.45,1.01 -0.87,0.38 -1.53,0.92 -2,1.64 -0.47,0.72 -0.71,1.52 -0.71,2.41 0,1.34 0.51,2.46 1.54,3.36 1.03,0.9 2.53,1.35 4.51,1.35 1.95,0 3.7,-0.42 5.23,-1.28 1.52,-0.85 2.65,-2.01 3.36,-3.49 0.55,-1.15 0.82,-2.83 0.82,-5.06l0.03 -1.85zm29.93 15.02l0 -41.37 27.91 0 0 4.85 -22.42 0 0 12.88 19.42 0 0 4.85 -19.42 0 0 18.78 -5.49 0zm34.31 0l0 -29.99 4.56 0 0 4.59c1.17,-2.13 2.24,-3.53 3.24,-4.21 0.99,-0.68 2.08,-1.02 3.26,-1.02 1.71,0 3.46,0.54 5.23,1.61l-1.81 4.69c-1.23,-0.69 -2.47,-1.04 -3.7,-1.04 -1.11,0 -2.1,0.34 -2.97,1 -0.88,0.66 -1.5,1.59 -1.88,2.77 -0.57,1.8 -0.85,3.77 -0.85,5.92l0 15.67 -5.09 0zm38.89 -3.75c-1.89,1.61 -3.71,2.73 -5.45,3.4 -1.74,0.67 -3.61,0.99 -5.62,0.99 -3.29,0 -5.82,-0.8 -7.6,-2.41 -1.77,-1.6 -2.66,-3.65 -2.66,-6.14 0,-1.47 0.34,-2.8 1,-4.02 0.67,-1.21 1.55,-2.17 2.63,-2.91 1.09,-0.73 2.3,-1.29 3.66,-1.66 1,-0.26 2.51,-0.51 4.53,-0.76 4.1,-0.48 7.14,-1.07 9.07,-1.74 0.02,-0.69 0.03,-1.14 0.03,-1.32 0,-2.06 -0.48,-3.51 -1.44,-4.36 -1.3,-1.15 -3.24,-1.71 -5.8,-1.71 -2.4,0 -4.17,0.42 -5.31,1.26 -1.15,0.84 -1.98,2.32 -2.53,4.46l-4.97 -0.69c0.45,-2.13 1.19,-3.85 2.23,-5.16 1.04,-1.31 2.54,-2.31 4.51,-3.02 1.96,-0.7 4.24,-1.06 6.82,-1.06 2.56,0 4.65,0.3 6.26,0.91 1.6,0.61 2.78,1.36 3.53,2.27 0.75,0.92 1.28,2.07 1.59,3.47 0.16,0.87 0.25,2.42 0.25,4.67l0 6.74c0,4.71 0.11,7.69 0.32,8.95 0.2,1.26 0.63,2.46 1.24,3.62l-5.32 0c-0.51,-1.07 -0.84,-2.32 -0.98,-3.75zm-0.4 -11.27c-1.85,0.75 -4.62,1.39 -8.32,1.91 -2.1,0.3 -3.58,0.64 -4.45,1.01 -0.87,0.38 -1.53,0.92 -2,1.64 -0.47,0.72 -0.71,1.52 -0.71,2.41 0,1.34 0.51,2.46 1.54,3.36 1.03,0.9 2.53,1.35 4.51,1.35 1.95,0 3.7,-0.42 5.23,-1.28 1.52,-0.85 2.65,-2.01 3.36,-3.49 0.55,-1.15 0.82,-2.83 0.82,-5.06l0.03 -1.85zm12.95 15.02l0 -29.99 4.56 0 0 4.26c2.19,-3.27 5.37,-4.89 9.52,-4.89 1.81,0 3.47,0.33 4.98,0.97 1.51,0.64 2.65,1.5 3.4,2.55 0.75,1.05 1.28,2.3 1.58,3.75 0.18,0.94 0.28,2.59 0.28,4.94l0 18.41 -5.08 0 0 -18.22c0,-2.07 -0.19,-3.62 -0.59,-4.64 -0.4,-1.02 -1.1,-1.84 -2.1,-2.46 -1,-0.61 -2.19,-0.92 -3.53,-0.92 -2.16,0 -4.02,0.68 -5.59,2.06 -1.57,1.37 -2.35,3.98 -2.35,7.81l0 16.36 -5.09 0zm51.72 -10.98l4.97 0.69c-0.55,3.42 -1.94,6.09 -4.18,8.02 -2.25,1.94 -5.01,2.9 -8.27,2.9 -4.09,0 -7.38,-1.34 -9.87,-4.02 -2.49,-2.68 -3.74,-6.51 -3.74,-11.5 0,-3.24 0.54,-6.06 1.61,-8.48 1.07,-2.42 2.7,-4.24 4.89,-5.44 2.19,-1.21 4.56,-1.82 7.15,-1.82 3.24,0 5.91,0.82 7.97,2.47 2.07,1.65 3.4,3.99 3.98,7.01l-4.91 0.75c-0.47,-2.01 -1.3,-3.52 -2.5,-4.55 -1.2,-1.01 -2.64,-1.52 -4.33,-1.52 -2.56,0 -4.64,0.92 -6.25,2.75 -1.6,1.84 -2.4,4.73 -2.4,8.7 0,4.02 0.77,6.94 2.31,8.76 1.55,1.82 3.56,2.73 6.04,2.73 2,0 3.67,-0.61 5,-1.83 1.34,-1.21 2.19,-3.09 2.54,-5.62zm29.75 1.27l5.26 0.69c-0.82,3.05 -2.35,5.43 -4.58,7.12 -2.24,1.69 -5.09,2.53 -8.56,2.53 -4.37,0 -7.84,-1.35 -10.4,-4.04 -2.56,-2.69 -3.84,-6.47 -3.84,-11.33 0,-5.03 1.29,-8.94 3.88,-11.71 2.59,-2.78 5.95,-4.17 10.08,-4.17 4,0 7.26,1.36 9.79,4.08 2.53,2.72 3.8,6.56 3.8,11.5 0,0.3 -0.01,0.75 -0.03,1.35l-22.33 0c0.19,3.28 1.12,5.81 2.79,7.55 1.67,1.74 3.75,2.62 6.25,2.62 1.86,0 3.45,-0.49 4.76,-1.47 1.32,-0.98 2.36,-2.55 3.13,-4.71zm-16.64 -8.15l16.7 0c-0.22,-2.52 -0.87,-4.41 -1.92,-5.67 -1.61,-1.95 -3.71,-2.94 -6.28,-2.94 -2.33,0 -4.29,0.78 -5.87,2.34 -1.58,1.56 -2.46,3.65 -2.63,6.27zm64.83 8.15l5.26 0.69c-0.82,3.05 -2.35,5.43 -4.58,7.12 -2.24,1.69 -5.09,2.53 -8.56,2.53 -4.37,0 -7.84,-1.35 -10.4,-4.04 -2.56,-2.69 -3.84,-6.47 -3.84,-11.33 0,-5.03 1.29,-8.94 3.88,-11.71 2.59,-2.78 5.95,-4.17 10.08,-4.17 4,0 7.26,1.36 9.79,4.08 2.53,2.72 3.8,6.56 3.8,11.5 0,0.3 -0.01,0.75 -0.03,1.35l-22.33 0c0.19,3.28 1.12,5.81 2.79,7.55 1.67,1.74 3.75,2.62 6.25,2.62 1.86,0 3.45,-0.49 4.76,-1.47 1.32,-0.98 2.36,-2.55 3.13,-4.71zm-16.64 -8.15l16.7 0c-0.22,-2.52 -0.87,-4.41 -1.92,-5.67 -1.61,-1.95 -3.71,-2.94 -6.28,-2.94 -2.33,0 -4.29,0.78 -5.87,2.34 -1.58,1.56 -2.46,3.65 -2.63,6.27zm26.3 8.9l5.03 -0.81c0.28,2.01 1.07,3.55 2.36,4.63 1.29,1.07 3.1,1.61 5.41,1.61 2.34,0 4.07,-0.47 5.21,-1.43 1.13,-0.94 1.7,-2.06 1.7,-3.34 0,-1.15 -0.51,-2.05 -1.52,-2.71 -0.71,-0.45 -2.45,-1.02 -5.2,-1.72 -3.72,-0.94 -6.29,-1.74 -7.73,-2.43 -1.43,-0.69 -2.52,-1.64 -3.26,-2.85 -0.74,-1.2 -1.12,-2.54 -1.12,-4.01 0,-1.34 0.31,-2.57 0.92,-3.71 0.62,-1.14 1.44,-2.08 2.49,-2.83 0.79,-0.58 1.87,-1.07 3.22,-1.47 1.37,-0.4 2.82,-0.61 4.38,-0.61 2.35,0 4.41,0.34 6.18,1.02 1.78,0.67 3.09,1.6 3.94,2.75 0.84,1.17 1.43,2.72 1.74,4.66l-4.97 0.69c-0.22,-1.56 -0.88,-2.78 -1.95,-3.66 -1.08,-0.88 -2.6,-1.31 -4.57,-1.31 -2.32,0 -3.99,0.39 -4.98,1.16 -0.99,0.77 -1.49,1.68 -1.49,2.71 0,0.66 0.2,1.25 0.62,1.78 0.41,0.54 1.06,0.99 1.95,1.35 0.51,0.19 1.99,0.63 4.48,1.3 3.58,0.95 6.09,1.74 7.51,2.35 1.43,0.61 2.54,1.5 3.35,2.66 0.82,1.17 1.22,2.61 1.22,4.34 0,1.68 -0.49,3.27 -1.48,4.77 -0.99,1.49 -2.42,2.65 -4.28,3.47 -1.87,0.82 -3.98,1.22 -6.33,1.22 -3.89,0 -6.86,-0.81 -8.91,-2.42 -2.04,-1.62 -3.34,-4.01 -3.91,-7.17zm41.95 4.42l0.69 4.49c-1.43,0.3 -2.71,0.45 -3.82,0.45 -1.84,0 -3.26,-0.29 -4.29,-0.88 -1.01,-0.59 -1.72,-1.35 -2.14,-2.3 -0.41,-0.95 -0.62,-2.96 -0.62,-6.01l0 -17.28 -3.75 0 0 -3.93 3.75 0 0 -7.41 5.09 -3.05 0 10.47 5.09 0 0 3.93 -5.09 0 0 17.56c0,1.46 0.09,2.39 0.27,2.8 0.17,0.41 0.46,0.74 0.87,0.99 0.4,0.24 0.98,0.37 1.73,0.37 0.56,0 1.3,-0.07 2.22,-0.2zm19.05 -4.42l5.03 -0.81c0.28,2.01 1.07,3.55 2.36,4.63 1.29,1.07 3.1,1.61 5.41,1.61 2.34,0 4.07,-0.47 5.21,-1.43 1.13,-0.94 1.7,-2.06 1.7,-3.34 0,-1.15 -0.51,-2.05 -1.52,-2.71 -0.71,-0.45 -2.45,-1.02 -5.2,-1.72 -3.72,-0.94 -6.29,-1.74 -7.73,-2.43 -1.43,-0.69 -2.52,-1.64 -3.26,-2.85 -0.74,-1.2 -1.12,-2.54 -1.12,-4.01 0,-1.34 0.31,-2.57 0.92,-3.71 0.62,-1.14 1.44,-2.08 2.49,-2.83 0.79,-0.58 1.87,-1.07 3.22,-1.47 1.37,-0.4 2.82,-0.61 4.38,-0.61 2.35,0 4.41,0.34 6.18,1.02 1.78,0.67 3.09,1.6 3.94,2.75 0.84,1.17 1.43,2.72 1.74,4.66l-4.97 0.69c-0.22,-1.56 -0.88,-2.78 -1.95,-3.66 -1.08,-0.88 -2.6,-1.31 -4.57,-1.31 -2.32,0 -3.99,0.39 -4.98,1.16 -0.99,0.77 -1.49,1.68 -1.49,2.71 0,0.66 0.2,1.25 0.62,1.78 0.41,0.54 1.06,0.99 1.95,1.35 0.51,0.19 1.99,0.63 4.48,1.3 3.58,0.95 6.09,1.74 7.51,2.35 1.43,0.61 2.54,1.5 3.35,2.66 0.82,1.17 1.22,2.61 1.22,4.34 0,1.68 -0.49,3.27 -1.48,4.77 -0.99,1.49 -2.42,2.65 -4.28,3.47 -1.87,0.82 -3.98,1.22 -6.33,1.22 -3.89,0 -6.86,-0.81 -8.91,-2.42 -2.04,-1.62 -3.34,-4.01 -3.91,-7.17zm50.5 5.2c-1.89,1.61 -3.71,2.73 -5.45,3.4 -1.74,0.67 -3.61,0.99 -5.62,0.99 -3.29,0 -5.82,-0.8 -7.6,-2.41 -1.77,-1.6 -2.66,-3.65 -2.66,-6.14 0,-1.47 0.34,-2.8 1,-4.02 0.67,-1.21 1.55,-2.17 2.63,-2.91 1.09,-0.73 2.3,-1.29 3.66,-1.66 1,-0.26 2.51,-0.51 4.53,-0.76 4.1,-0.48 7.14,-1.07 9.07,-1.74 0.02,-0.69 0.03,-1.14 0.03,-1.32 0,-2.06 -0.48,-3.51 -1.44,-4.36 -1.3,-1.15 -3.24,-1.71 -5.8,-1.71 -2.4,0 -4.17,0.42 -5.31,1.26 -1.15,0.84 -1.98,2.32 -2.53,4.46l-4.97 -0.69c0.45,-2.13 1.19,-3.85 2.23,-5.16 1.04,-1.31 2.54,-2.31 4.51,-3.02 1.96,-0.7 4.24,-1.06 6.82,-1.06 2.56,0 4.65,0.3 6.26,0.91 1.6,0.61 2.78,1.36 3.53,2.27 0.75,0.92 1.28,2.07 1.59,3.47 0.16,0.87 0.25,2.42 0.25,4.67l0 6.74c0,4.71 0.11,7.69 0.32,8.95 0.2,1.26 0.63,2.46 1.24,3.62l-5.32 0c-0.51,-1.07 -0.84,-2.32 -0.98,-3.75zm-0.4 -11.27c-1.85,0.75 -4.62,1.39 -8.32,1.91 -2.1,0.3 -3.58,0.64 -4.45,1.01 -0.87,0.38 -1.53,0.92 -2,1.64 -0.47,0.72 -0.71,1.52 -0.71,2.41 0,1.34 0.51,2.46 1.54,3.36 1.03,0.9 2.53,1.35 4.51,1.35 1.95,0 3.7,-0.42 5.23,-1.28 1.52,-0.85 2.65,-2.01 3.36,-3.49 0.55,-1.15 0.82,-2.83 0.82,-5.06l0.03 -1.85zm12.95 15.02l0 -29.99 4.56 0 0 4.26c2.19,-3.27 5.37,-4.89 9.52,-4.89 1.81,0 3.47,0.33 4.98,0.97 1.51,0.64 2.65,1.5 3.4,2.55 0.75,1.05 1.28,2.3 1.58,3.75 0.18,0.94 0.28,2.59 0.28,4.94l0 18.41 -5.08 0 0 -18.22c0,-2.07 -0.19,-3.62 -0.59,-4.64 -0.4,-1.02 -1.1,-1.84 -2.1,-2.46 -1,-0.61 -2.19,-0.92 -3.53,-0.92 -2.16,0 -4.02,0.68 -5.59,2.06 -1.57,1.37 -2.35,3.98 -2.35,7.81l0 16.36 -5.09 0zm30.11 -8.96l5.03 -0.81c0.28,2.01 1.07,3.55 2.36,4.63 1.29,1.07 3.1,1.61 5.41,1.61 2.34,0 4.07,-0.47 5.21,-1.43 1.13,-0.94 1.7,-2.06 1.7,-3.34 0,-1.15 -0.51,-2.05 -1.52,-2.71 -0.71,-0.45 -2.45,-1.02 -5.2,-1.72 -3.72,-0.94 -6.29,-1.74 -7.73,-2.43 -1.43,-0.69 -2.52,-1.64 -3.26,-2.85 -0.74,-1.2 -1.12,-2.54 -1.12,-4.01 0,-1.34 0.31,-2.57 0.92,-3.71 0.62,-1.14 1.44,-2.08 2.49,-2.83 0.79,-0.58 1.87,-1.07 3.22,-1.47 1.37,-0.4 2.82,-0.61 4.38,-0.61 2.35,0 4.41,0.34 6.18,1.02 1.78,0.67 3.09,1.6 3.94,2.75 0.84,1.17 1.43,2.72 1.74,4.66l-4.97 0.69c-0.22,-1.56 -0.88,-2.78 -1.95,-3.66 -1.08,-0.88 -2.6,-1.31 -4.57,-1.31 -2.32,0 -3.99,0.39 -4.98,1.16 -0.99,0.77 -1.49,1.68 -1.49,2.71 0,0.66 0.2,1.25 0.62,1.78 0.41,0.54 1.06,0.99 1.95,1.35 0.51,0.19 1.99,0.63 4.48,1.3 3.58,0.95 6.09,1.74 7.51,2.35 1.43,0.61 2.54,1.5 3.35,2.66 0.82,1.17 1.22,2.61 1.22,4.34 0,1.68 -0.49,3.27 -1.48,4.77 -0.99,1.49 -2.42,2.65 -4.28,3.47 -1.87,0.82 -3.98,1.22 -6.33,1.22 -3.89,0 -6.86,-0.81 -8.91,-2.42 -2.04,-1.62 -3.34,-4.01 -3.91,-7.17zm66.55 5.2c-1.89,1.61 -3.71,2.73 -5.45,3.4 -1.74,0.67 -3.61,0.99 -5.62,0.99 -3.29,0 -5.82,-0.8 -7.6,-2.41 -1.77,-1.6 -2.66,-3.65 -2.66,-6.14 0,-1.47 0.34,-2.8 1,-4.02 0.67,-1.21 1.55,-2.17 2.63,-2.91 1.09,-0.73 2.3,-1.29 3.66,-1.66 1,-0.26 2.51,-0.51 4.53,-0.76 4.1,-0.48 7.14,-1.07 9.07,-1.74 0.02,-0.69 0.03,-1.14 0.03,-1.32 0,-2.06 -0.48,-3.51 -1.44,-4.36 -1.3,-1.15 -3.24,-1.71 -5.8,-1.71 -2.4,0 -4.17,0.42 -5.31,1.26 -1.15,0.84 -1.98,2.32 -2.53,4.46l-4.97 -0.69c0.45,-2.13 1.19,-3.85 2.23,-5.16 1.04,-1.31 2.54,-2.31 4.51,-3.02 1.96,-0.7 4.24,-1.06 6.82,-1.06 2.56,0 4.65,0.3 6.26,0.91 1.6,0.61 2.78,1.36 3.53,2.27 0.75,0.92 1.28,2.07 1.59,3.47 0.16,0.87 0.25,2.42 0.25,4.67l0 6.74c0,4.71 0.11,7.69 0.32,8.95 0.2,1.26 0.63,2.46 1.24,3.62l-5.32 0c-0.51,-1.07 -0.84,-2.32 -0.98,-3.75zm-0.4 -11.27c-1.85,0.75 -4.62,1.39 -8.32,1.91 -2.1,0.3 -3.58,0.64 -4.45,1.01 -0.87,0.38 -1.53,0.92 -2,1.64 -0.47,0.72 -0.71,1.52 -0.71,2.41 0,1.34 0.51,2.46 1.54,3.36 1.03,0.9 2.53,1.35 4.51,1.35 1.95,0 3.7,-0.42 5.23,-1.28 1.52,-0.85 2.65,-2.01 3.36,-3.49 0.55,-1.15 0.82,-2.83 0.82,-5.06l0.03 -1.85zm32.54 15.02l0 -4.46c-2.33,3.4 -5.49,5.09 -9.49,5.09 -1.76,0 -3.41,-0.34 -4.94,-1.01 -1.53,-0.68 -2.67,-1.53 -3.41,-2.55 -0.74,-1.03 -1.26,-2.28 -1.56,-3.76 -0.2,-1 -0.31,-2.58 -0.31,-4.74l0 -18.56 5.09 0 0 16.59c0,2.65 0.11,4.44 0.31,5.36 0.32,1.34 0.99,2.38 2.03,3.14 1.03,0.76 2.3,1.15 3.82,1.15 1.52,0 2.95,-0.39 4.28,-1.17 1.33,-0.78 2.27,-1.85 2.83,-3.19 0.55,-1.34 0.83,-3.29 0.83,-5.85l0 -16.03 5.09 0 0 29.99 -4.56 0zm32.14 -10.98l4.97 0.69c-0.55,3.42 -1.94,6.09 -4.18,8.02 -2.25,1.94 -5.01,2.9 -8.27,2.9 -4.09,0 -7.38,-1.34 -9.87,-4.02 -2.49,-2.68 -3.74,-6.51 -3.74,-11.5 0,-3.24 0.54,-6.06 1.61,-8.48 1.07,-2.42 2.7,-4.24 4.89,-5.44 2.19,-1.21 4.56,-1.82 7.15,-1.82 3.24,0 5.91,0.82 7.97,2.47 2.07,1.65 3.4,3.99 3.98,7.01l-4.91 0.75c-0.47,-2.01 -1.3,-3.52 -2.5,-4.55 -1.2,-1.01 -2.64,-1.52 -4.33,-1.52 -2.56,0 -4.64,0.92 -6.25,2.75 -1.6,1.84 -2.4,4.73 -2.4,8.7 0,4.02 0.77,6.94 2.31,8.76 1.55,1.82 3.56,2.73 6.04,2.73 2,0 3.67,-0.61 5,-1.83 1.34,-1.21 2.19,-3.09 2.54,-5.62zm28.89 10.98l0 -4.46c-2.33,3.4 -5.49,5.09 -9.49,5.09 -1.76,0 -3.41,-0.34 -4.94,-1.01 -1.53,-0.68 -2.67,-1.53 -3.41,-2.55 -0.74,-1.03 -1.26,-2.28 -1.56,-3.76 -0.2,-1 -0.31,-2.58 -0.31,-4.74l0 -18.56 5.09 0 0 16.59c0,2.65 0.11,4.44 0.31,5.36 0.32,1.34 0.99,2.38 2.03,3.14 1.03,0.76 2.3,1.15 3.82,1.15 1.52,0 2.95,-0.39 4.28,-1.17 1.33,-0.78 2.27,-1.85 2.83,-3.19 0.55,-1.34 0.83,-3.29 0.83,-5.85l0 -16.03 5.09 0 0 29.99 -4.56 0zm12.55 0l0 -29.99 4.56 0 0 4.26c2.19,-3.27 5.37,-4.89 9.52,-4.89 1.81,0 3.47,0.33 4.98,0.97 1.51,0.64 2.65,1.5 3.4,2.55 0.75,1.05 1.28,2.3 1.58,3.75 0.18,0.94 0.28,2.59 0.28,4.94l0 18.41 -5.08 0 0 -18.22c0,-2.07 -0.19,-3.62 -0.59,-4.64 -0.4,-1.02 -1.1,-1.84 -2.1,-2.46 -1,-0.61 -2.19,-0.92 -3.53,-0.92 -2.16,0 -4.02,0.68 -5.59,2.06 -1.57,1.37 -2.35,3.98 -2.35,7.81l0 16.36 -5.09 0zm67.55 0l0 -3.8c-1.9,2.96 -4.69,4.44 -8.38,4.44 -2.39,0 -4.58,-0.66 -6.58,-1.97 -2,-1.31 -3.55,-3.15 -4.66,-5.5 -1.1,-2.36 -1.65,-5.07 -1.65,-8.13 0,-2.98 0.5,-5.69 1.49,-8.13 1,-2.43 2.49,-4.29 4.49,-5.59 1.98,-1.3 4.22,-1.95 6.67,-1.95 1.81,0 3.42,0.39 4.82,1.15 1.41,0.76 2.55,1.76 3.44,2.99l0 -14.88 5.09 0 0 41.37 -4.74 0zm-16.06 -14.96c0,3.83 0.81,6.69 2.44,8.59 1.62,1.9 3.53,2.84 5.74,2.84 2.23,0 4.11,-0.91 5.67,-2.72 1.55,-1.81 2.33,-4.57 2.33,-8.29 0,-4.08 -0.79,-7.09 -2.38,-9 -1.58,-1.92 -3.53,-2.87 -5.86,-2.87 -2.26,0 -4.15,0.92 -5.67,2.75 -1.51,1.84 -2.27,4.74 -2.27,8.7zm26.94 -0.04c0,-5.54 1.54,-9.64 4.63,-12.31 2.57,-2.22 5.72,-3.32 9.43,-3.32 4.11,0 7.48,1.35 10.1,4.04 2.61,2.69 3.92,6.41 3.92,11.16 0,3.85 -0.58,6.88 -1.73,9.08 -1.16,2.21 -2.84,3.92 -5.06,5.14 -2.21,1.22 -4.62,1.83 -7.23,1.83 -4.2,0 -7.59,-1.34 -10.18,-4.02 -2.59,-2.69 -3.88,-6.56 -3.88,-11.6zm5.2 0.01c0,3.83 0.84,6.7 2.51,8.6 1.69,1.91 3.79,2.86 6.35,2.86 2.52,0 4.62,-0.95 6.31,-2.87 1.68,-1.92 2.51,-4.83 2.51,-8.75 0,-3.7 -0.85,-6.5 -2.53,-8.4 -1.69,-1.91 -3.78,-2.86 -6.29,-2.86 -2.55,0 -4.66,0.94 -6.35,2.84 -1.68,1.9 -2.51,4.76 -2.51,8.58zm48.43 14.98l0 -4.46c-2.33,3.4 -5.49,5.09 -9.49,5.09 -1.76,0 -3.41,-0.34 -4.94,-1.01 -1.53,-0.68 -2.67,-1.53 -3.41,-2.55 -0.74,-1.03 -1.26,-2.28 -1.56,-3.76 -0.2,-1 -0.31,-2.58 -0.31,-4.74l0 -18.56 5.09 0 0 16.59c0,2.65 0.11,4.44 0.31,5.36 0.32,1.34 0.99,2.38 2.03,3.14 1.03,0.76 2.3,1.15 3.82,1.15 1.52,0 2.95,-0.39 4.28,-1.17 1.33,-0.78 2.27,-1.85 2.83,-3.19 0.55,-1.34 0.83,-3.29 0.83,-5.85l0 -16.03 5.09 0 0 29.99 -4.56 0zm23.59 -4.54l0.69 4.49c-1.43,0.3 -2.71,0.45 -3.82,0.45 -1.84,0 -3.26,-0.29 -4.29,-0.88 -1.01,-0.59 -1.72,-1.35 -2.14,-2.3 -0.41,-0.95 -0.62,-2.96 -0.62,-6.01l0 -17.28 -3.75 0 0 -3.93 3.75 0 0 -7.41 5.09 -3.05 0 10.47 5.09 0 0 3.93 -5.09 0 0 17.56c0,1.46 0.09,2.39 0.27,2.8 0.17,0.41 0.46,0.74 0.87,0.99 0.4,0.24 0.98,0.37 1.73,0.37 0.56,0 1.3,-0.07 2.22,-0.2zm25.47 -5.17l5.26 0.69c-0.82,3.05 -2.35,5.43 -4.58,7.12 -2.24,1.69 -5.09,2.53 -8.56,2.53 -4.37,0 -7.84,-1.35 -10.4,-4.04 -2.56,-2.69 -3.84,-6.47 -3.84,-11.33 0,-5.03 1.29,-8.94 3.88,-11.71 2.59,-2.78 5.95,-4.17 10.08,-4.17 4,0 7.26,1.36 9.79,4.08 2.53,2.72 3.8,6.56 3.8,11.5 0,0.3 -0.01,0.75 -0.03,1.35l-22.33 0c0.19,3.28 1.12,5.81 2.79,7.55 1.67,1.74 3.75,2.62 6.25,2.62 1.86,0 3.45,-0.49 4.76,-1.47 1.32,-0.98 2.36,-2.55 3.13,-4.71zm-16.64 -8.15l16.7 0c-0.22,-2.52 -0.87,-4.41 -1.92,-5.67 -1.61,-1.95 -3.71,-2.94 -6.28,-2.94 -2.33,0 -4.29,0.78 -5.87,2.34 -1.58,1.56 -2.46,3.65 -2.63,6.27zm63.96 17.85l0 -4.46c-2.33,3.4 -5.49,5.09 -9.49,5.09 -1.76,0 -3.41,-0.34 -4.94,-1.01 -1.53,-0.68 -2.67,-1.53 -3.41,-2.55 -0.74,-1.03 -1.26,-2.28 -1.56,-3.76 -0.2,-1 -0.31,-2.58 -0.31,-4.74l0 -18.56 5.09 0 0 16.59c0,2.65 0.11,4.44 0.31,5.36 0.32,1.34 0.99,2.38 2.03,3.14 1.03,0.76 2.3,1.15 3.82,1.15 1.52,0 2.95,-0.39 4.28,-1.17 1.33,-0.78 2.27,-1.85 2.83,-3.19 0.55,-1.34 0.83,-3.29 0.83,-5.85l0 -16.03 5.09 0 0 29.99 -4.56 0zm12.55 0l0 -29.99 4.56 0 0 4.26c2.19,-3.27 5.37,-4.89 9.52,-4.89 1.81,0 3.47,0.33 4.98,0.97 1.51,0.64 2.65,1.5 3.4,2.55 0.75,1.05 1.28,2.3 1.58,3.75 0.18,0.94 0.28,2.59 0.28,4.94l0 18.41 -5.08 0 0 -18.22c0,-2.07 -0.19,-3.62 -0.59,-4.64 -0.4,-1.02 -1.1,-1.84 -2.1,-2.46 -1,-0.61 -2.19,-0.92 -3.53,-0.92 -2.16,0 -4.02,0.68 -5.59,2.06 -1.57,1.37 -2.35,3.98 -2.35,7.81l0 16.36 -5.09 0zm67.55 0l0 -3.8c-1.9,2.96 -4.69,4.44 -8.38,4.44 -2.39,0 -4.58,-0.66 -6.58,-1.97 -2,-1.31 -3.55,-3.15 -4.66,-5.5 -1.1,-2.36 -1.65,-5.07 -1.65,-8.13 0,-2.98 0.5,-5.69 1.49,-8.13 1,-2.43 2.49,-4.29 4.49,-5.59 1.98,-1.3 4.22,-1.95 6.67,-1.95 1.81,0 3.42,0.39 4.82,1.15 1.41,0.76 2.55,1.76 3.44,2.99l0 -14.88 5.09 0 0 41.37 -4.74 0zm-16.06 -14.96c0,3.83 0.81,6.69 2.44,8.59 1.62,1.9 3.53,2.84 5.74,2.84 2.23,0 4.11,-0.91 5.67,-2.72 1.55,-1.81 2.33,-4.57 2.33,-8.29 0,-4.08 -0.79,-7.09 -2.38,-9 -1.58,-1.92 -3.53,-2.87 -5.86,-2.87 -2.26,0 -4.15,0.92 -5.67,2.75 -1.51,1.84 -2.27,4.74 -2.27,8.7zm49.3 5.25l5.26 0.69c-0.82,3.05 -2.35,5.43 -4.58,7.12 -2.24,1.69 -5.09,2.53 -8.56,2.53 -4.37,0 -7.84,-1.35 -10.4,-4.04 -2.56,-2.69 -3.84,-6.47 -3.84,-11.33 0,-5.03 1.29,-8.94 3.88,-11.71 2.59,-2.78 5.95,-4.17 10.08,-4.17 4,0 7.26,1.36 9.79,4.08 2.53,2.72 3.8,6.56 3.8,11.5 0,0.3 -0.01,0.75 -0.03,1.35l-22.33 0c0.19,3.28 1.12,5.81 2.79,7.55 1.67,1.74 3.75,2.62 6.25,2.62 1.86,0 3.45,-0.49 4.76,-1.47 1.32,-0.98 2.36,-2.55 3.13,-4.71zm-16.64 -8.15l16.7 0c-0.22,-2.52 -0.87,-4.41 -1.92,-5.67 -1.61,-1.95 -3.71,-2.94 -6.28,-2.94 -2.33,0 -4.29,0.78 -5.87,2.34 -1.58,1.56 -2.46,3.65 -2.63,6.27z"/>
   <path class="fil3" d="M1785.59 582.24l5.03 -0.81c0.28,2.01 1.07,3.55 2.36,4.63 1.29,1.07 3.1,1.61 5.41,1.61 2.34,0 4.07,-0.47 5.21,-1.43 1.13,-0.94 1.7,-2.06 1.7,-3.34 0,-1.15 -0.51,-2.05 -1.52,-2.71 -0.71,-0.45 -2.45,-1.02 -5.2,-1.72 -3.72,-0.94 -6.29,-1.74 -7.73,-2.43 -1.43,-0.69 -2.52,-1.64 -3.26,-2.85 -0.74,-1.2 -1.12,-2.54 -1.12,-4.01 0,-1.34 0.31,-2.57 0.92,-3.71 0.62,-1.14 1.44,-2.08 2.49,-2.83 0.79,-0.58 1.87,-1.07 3.22,-1.47 1.37,-0.4 2.82,-0.61 4.38,-0.61 2.35,0 4.41,0.34 6.18,1.02 1.78,0.67 3.09,1.6 3.94,2.75 0.84,1.17 1.43,2.72 1.74,4.66l-4.97 0.69c-0.22,-1.56 -0.88,-2.78 -1.95,-3.66 -1.08,-0.88 -2.6,-1.31 -4.57,-1.31 -2.32,0 -3.99,0.39 -4.98,1.16 -0.99,0.77 -1.49,1.68 -1.49,2.71 0,0.66 0.2,1.25 0.62,1.78 0.41,0.54 1.06,0.99 1.95,1.35 0.51,0.19 1.99,0.63 4.48,1.3 3.58,0.95 6.09,1.74 7.51,2.35 1.43,0.61 2.54,1.5 3.35,2.66 0.82,1.17 1.22,2.61 1.22,4.34 0,1.68 -0.49,3.27 -1.48,4.77 -0.99,1.49 -2.42,2.65 -4.28,3.47 -1.87,0.82 -3.98,1.22 -6.33,1.22 -3.89,0 -6.86,-0.81 -8.91,-2.42 -2.04,-1.62 -3.34,-4.01 -3.91,-7.17zm46.96 8.96l0 -29.99 4.56 0 0 4.24c0.93,-1.47 2.18,-2.65 3.75,-3.53 1.56,-0.9 3.33,-1.34 5.33,-1.34 2.21,0 4.03,0.46 5.45,1.38 1.42,0.93 2.42,2.21 2.99,3.86 2.39,-3.5 5.48,-5.24 9.29,-5.24 2.98,0 5.29,0.82 6.88,2.47 1.61,1.65 2.42,4.18 2.42,7.6l0 20.56 -5.09 0 0 -18.88c0,-2.02 -0.17,-3.48 -0.5,-4.38 -0.33,-0.9 -0.92,-1.61 -1.8,-2.16 -0.87,-0.55 -1.89,-0.82 -3.05,-0.82 -2.12,0 -3.87,0.7 -5.27,2.1 -1.4,1.41 -2.09,3.65 -2.09,6.73l0 17.4 -5.09 0 0 -19.46c0,-2.25 -0.41,-3.95 -1.24,-5.08 -0.83,-1.13 -2.19,-1.7 -4.06,-1.7 -1.43,0 -2.74,0.38 -3.96,1.13 -1.21,0.75 -2.09,1.85 -2.64,3.3 -0.54,1.45 -0.81,3.53 -0.81,6.26l0 15.54 -5.09 0zm68.58 -9.71l5.26 0.69c-0.82,3.05 -2.35,5.43 -4.58,7.12 -2.24,1.69 -5.09,2.53 -8.56,2.53 -4.37,0 -7.84,-1.35 -10.4,-4.04 -2.56,-2.69 -3.84,-6.47 -3.84,-11.33 0,-5.03 1.29,-8.94 3.88,-11.71 2.59,-2.78 5.95,-4.17 10.08,-4.17 4,0 7.26,1.36 9.79,4.08 2.53,2.72 3.8,6.56 3.8,11.5 0,0.3 -0.01,0.75 -0.03,1.35l-22.33 0c0.19,3.28 1.12,5.81 2.79,7.55 1.67,1.74 3.75,2.62 6.25,2.62 1.86,0 3.45,-0.49 4.76,-1.47 1.32,-0.98 2.36,-2.55 3.13,-4.71zm-16.64 -8.15l16.7 0c-0.22,-2.52 -0.87,-4.41 -1.92,-5.67 -1.61,-1.95 -3.71,-2.94 -6.28,-2.94 -2.33,0 -4.29,0.78 -5.87,2.34 -1.58,1.56 -2.46,3.65 -2.63,6.27zm28.32 -17.74l0 -5.78 5.09 0 0 5.78 -5.09 0zm0 35.59l0 -29.99 5.09 0 0 29.99 -5.09 0zm12.72 0l0 -41.37 5.09 0 0 41.37 -5.09 0zm12.84 0l0 -41.37 5.09 0 0 41.37 -5.09 0zm33.4 -9.71l5.26 0.69c-0.82,3.05 -2.35,5.43 -4.58,7.12 -2.24,1.69 -5.09,2.53 -8.56,2.53 -4.37,0 -7.84,-1.35 -10.4,-4.04 -2.56,-2.69 -3.84,-6.47 -3.84,-11.33 0,-5.03 1.29,-8.94 3.88,-11.71 2.59,-2.78 5.95,-4.17 10.08,-4.17 4,0 7.26,1.36 9.79,4.08 2.53,2.72 3.8,6.56 3.8,11.5 0,0.3 -0.01,0.75 -0.03,1.35l-22.33 0c0.19,3.28 1.12,5.81 2.79,7.55 1.67,1.74 3.75,2.62 6.25,2.62 1.86,0 3.45,-0.49 4.76,-1.47 1.32,-0.98 2.36,-2.55 3.13,-4.71zm-16.64 -8.15l16.7 0c-0.22,-2.52 -0.87,-4.41 -1.92,-5.67 -1.61,-1.95 -3.71,-2.94 -6.28,-2.94 -2.33,0 -4.29,0.78 -5.87,2.34 -1.58,1.56 -2.46,3.65 -2.63,6.27zm47.91 17.85l0 -4.46c-2.33,3.4 -5.49,5.09 -9.49,5.09 -1.76,0 -3.41,-0.34 -4.94,-1.01 -1.53,-0.68 -2.67,-1.53 -3.41,-2.55 -0.74,-1.03 -1.26,-2.28 -1.56,-3.76 -0.2,-1 -0.31,-2.58 -0.31,-4.74l0 -18.56 5.09 0 0 16.59c0,2.65 0.11,4.44 0.31,5.36 0.32,1.34 0.99,2.38 2.03,3.14 1.03,0.76 2.3,1.15 3.82,1.15 1.52,0 2.95,-0.39 4.28,-1.17 1.33,-0.78 2.27,-1.85 2.83,-3.19 0.55,-1.34 0.83,-3.29 0.83,-5.85l0 -16.03 5.09 0 0 29.99 -4.56 0zm12.49 0l0 -29.99 4.56 0 0 4.59c1.17,-2.13 2.24,-3.53 3.24,-4.21 0.99,-0.68 2.08,-1.02 3.26,-1.02 1.71,0 3.46,0.54 5.23,1.61l-1.81 4.69c-1.23,-0.69 -2.47,-1.04 -3.7,-1.04 -1.11,0 -2.1,0.34 -2.97,1 -0.88,0.66 -1.5,1.59 -1.88,2.77 -0.57,1.8 -0.85,3.77 -0.85,5.92l0 15.67 -5.09 0zm17.28 -8.96l5.03 -0.81c0.28,2.01 1.07,3.55 2.36,4.63 1.29,1.07 3.1,1.61 5.41,1.61 2.34,0 4.07,-0.47 5.21,-1.43 1.13,-0.94 1.7,-2.06 1.7,-3.34 0,-1.15 -0.51,-2.05 -1.52,-2.71 -0.71,-0.45 -2.45,-1.02 -5.2,-1.72 -3.72,-0.94 -6.29,-1.74 -7.73,-2.43 -1.43,-0.69 -2.52,-1.64 -3.26,-2.85 -0.74,-1.2 -1.12,-2.54 -1.12,-4.01 0,-1.34 0.31,-2.57 0.92,-3.71 0.62,-1.14 1.44,-2.08 2.49,-2.83 0.79,-0.58 1.87,-1.07 3.22,-1.47 1.37,-0.4 2.82,-0.61 4.38,-0.61 2.35,0 4.41,0.34 6.18,1.02 1.78,0.67 3.09,1.6 3.94,2.75 0.84,1.17 1.43,2.72 1.74,4.66l-4.97 0.69c-0.22,-1.56 -0.88,-2.78 -1.95,-3.66 -1.08,-0.88 -2.6,-1.31 -4.57,-1.31 -2.32,0 -3.99,0.39 -4.98,1.16 -0.99,0.77 -1.49,1.68 -1.49,2.71 0,0.66 0.2,1.25 0.62,1.78 0.41,0.54 1.06,0.99 1.95,1.35 0.51,0.19 1.99,0.63 4.48,1.3 3.58,0.95 6.09,1.74 7.51,2.35 1.43,0.61 2.54,1.5 3.35,2.66 0.82,1.17 1.22,2.61 1.22,4.34 0,1.68 -0.49,3.27 -1.48,4.77 -0.99,1.49 -2.42,2.65 -4.28,3.47 -1.87,0.82 -3.98,1.22 -6.33,1.22 -3.89,0 -6.86,-0.81 -8.91,-2.42 -2.04,-1.62 -3.34,-4.01 -3.91,-7.17zm46.96 20.45l0 -41.49 4.62 0 0 3.94c1.09,-1.52 2.32,-2.67 3.7,-3.43 1.37,-0.76 3.03,-1.15 4.99,-1.15 2.56,0 4.81,0.66 6.77,1.98 1.96,1.31 3.43,3.17 4.43,5.56 0.99,2.4 1.49,5.02 1.49,7.88 0,3.05 -0.55,5.81 -1.65,8.26 -1.1,2.45 -2.69,4.32 -4.8,5.63 -2.09,1.3 -4.29,1.96 -6.61,1.96 -1.69,0 -3.22,-0.36 -4.56,-1.07 -1.35,-0.71 -2.44,-1.61 -3.31,-2.69l0 14.63 -5.09 0zm4.62 -26.31c0,3.84 0.78,6.68 2.33,8.52 1.56,1.84 3.45,2.76 5.66,2.76 2.25,0 4.18,-0.95 5.78,-2.86 1.61,-1.9 2.41,-4.85 2.41,-8.85 0,-3.81 -0.78,-6.66 -2.35,-8.56 -1.57,-1.9 -3.44,-2.84 -5.62,-2.84 -2.16,0 -4.06,1.01 -5.72,3.02 -1.67,2.02 -2.5,4.95 -2.5,8.8zm47.1 11.06c-1.89,1.61 -3.71,2.73 -5.45,3.4 -1.74,0.67 -3.61,0.99 -5.62,0.99 -3.29,0 -5.82,-0.8 -7.6,-2.41 -1.77,-1.6 -2.66,-3.65 -2.66,-6.14 0,-1.47 0.34,-2.8 1,-4.02 0.67,-1.21 1.55,-2.17 2.63,-2.91 1.09,-0.73 2.3,-1.29 3.66,-1.66 1,-0.26 2.51,-0.51 4.53,-0.76 4.1,-0.48 7.14,-1.07 9.07,-1.74 0.02,-0.69 0.03,-1.14 0.03,-1.32 0,-2.06 -0.48,-3.51 -1.44,-4.36 -1.3,-1.15 -3.24,-1.71 -5.8,-1.71 -2.4,0 -4.17,0.42 -5.31,1.26 -1.15,0.84 -1.98,2.32 -2.53,4.46l-4.97 -0.69c0.45,-2.13 1.19,-3.85 2.23,-5.16 1.04,-1.31 2.54,-2.31 4.51,-3.02 1.96,-0.7 4.24,-1.06 6.82,-1.06 2.56,0 4.65,0.3 6.26,0.91 1.6,0.61 2.78,1.36 3.53,2.27 0.75,0.92 1.28,2.07 1.59,3.47 0.16,0.87 0.25,2.42 0.25,4.67l0 6.74c0,4.71 0.11,7.69 0.32,8.95 0.2,1.26 0.63,2.46 1.24,3.62l-5.32 0c-0.51,-1.07 -0.84,-2.32 -0.98,-3.75zm-0.4 -11.27c-1.85,0.75 -4.62,1.39 -8.32,1.91 -2.1,0.3 -3.58,0.64 -4.45,1.01 -0.87,0.38 -1.53,0.92 -2,1.64 -0.47,0.72 -0.71,1.52 -0.71,2.41 0,1.34 0.51,2.46 1.54,3.36 1.03,0.9 2.53,1.35 4.51,1.35 1.95,0 3.7,-0.42 5.23,-1.28 1.52,-0.85 2.65,-2.01 3.36,-3.49 0.55,-1.15 0.82,-2.83 0.82,-5.06l0.03 -1.85zm12.72 26.55l-0.58 -4.7c1.12,0.3 2.08,0.45 2.91,0.45 1.14,0 2.04,-0.19 2.72,-0.57 0.68,-0.38 1.24,-0.91 1.68,-1.58 0.32,-0.51 0.84,-1.77 1.55,-3.79 0.1,-0.28 0.24,-0.69 0.45,-1.24l-11.38 -30.08 5.43 0 6.26 17.31c0.82,2.19 1.54,4.5 2.19,6.92 0.59,-2.28 1.28,-4.54 2.09,-6.75l6.4 -17.49 5.08 0 -11.34 30.51c-1.22,3.28 -2.17,5.54 -2.86,6.78 -0.91,1.67 -1.95,2.89 -3.11,3.67 -1.18,0.78 -2.57,1.17 -4.19,1.17 -0.98,0 -2.08,-0.2 -3.28,-0.61zm27.1 -20.48l5.03 -0.81c0.28,2.01 1.07,3.55 2.36,4.63 1.29,1.07 3.1,1.61 5.41,1.61 2.34,0 4.07,-0.47 5.21,-1.43 1.13,-0.94 1.7,-2.06 1.7,-3.34 0,-1.15 -0.51,-2.05 -1.52,-2.71 -0.71,-0.45 -2.45,-1.02 -5.2,-1.72 -3.72,-0.94 -6.29,-1.74 -7.73,-2.43 -1.43,-0.69 -2.52,-1.64 -3.26,-2.85 -0.74,-1.2 -1.12,-2.54 -1.12,-4.01 0,-1.34 0.31,-2.57 0.92,-3.71 0.62,-1.14 1.44,-2.08 2.49,-2.83 0.79,-0.58 1.87,-1.07 3.22,-1.47 1.37,-0.4 2.82,-0.61 4.38,-0.61 2.35,0 4.41,0.34 6.18,1.02 1.78,0.67 3.09,1.6 3.94,2.75 0.84,1.17 1.43,2.72 1.74,4.66l-4.97 0.69c-0.22,-1.56 -0.88,-2.78 -1.95,-3.66 -1.08,-0.88 -2.6,-1.31 -4.57,-1.31 -2.32,0 -3.99,0.39 -4.98,1.16 -0.99,0.77 -1.49,1.68 -1.49,2.71 0,0.66 0.2,1.25 0.62,1.78 0.41,0.54 1.06,0.99 1.95,1.35 0.51,0.19 1.99,0.63 4.48,1.3 3.58,0.95 6.09,1.74 7.51,2.35 1.43,0.61 2.54,1.5 3.35,2.66 0.82,1.17 1.22,2.61 1.22,4.34 0,1.68 -0.49,3.27 -1.48,4.77 -0.99,1.49 -2.42,2.65 -4.28,3.47 -1.87,0.82 -3.98,1.22 -6.33,1.22 -3.89,0 -6.86,-0.81 -8.91,-2.42 -2.04,-1.62 -3.34,-4.01 -3.91,-7.17z"/>
  </g>
  <polygon class="fil4" style="mask:url(#id0)" points="232.8,6.84 8.44,6.84 8.44,1.93 232.8,1.93 "/>
  <polygon class="fil4" style="mask:url(#id2)" points="232.8,972.63 -0,972.63 -0,967.72 232.8,967.72 "/>
  <polygon class="fil4" style="mask:url(#id4)" points="477.7,771.93 390.05,771.93 390.05,767.02 477.7,767.02 "/>
  <polygon class="fil4" style="mask:url(#id6)" points="618.55,656.29 530.9,656.29 530.9,651.38 618.55,651.38 "/>
  <polygon class="fil4" style="mask:url(#id8)" points="798.01,509.03 710.37,509.03 710.37,504.12 798.01,504.12 "/>
 </g>
</svg>
